<svg width="1600" height="720" viewBox="0 0 1600 720" fill="none" xmlns="http://www.w3.org/2000/svg">
  <defs>
    <linearGradient id="bg" x1="120" y1="72" x2="1488" y2="648" gradientUnits="userSpaceOnUse">
      <stop stop-color="#0F172A"/>
      <stop offset="0.58" stop-color="#111827"/>
      <stop offset="1" stop-color="#1E1B4B"/>
    </linearGradient>
    <linearGradient id="blue" x1="0" y1="0" x2="1" y2="1">
      <stop stop-color="#38BDF8"/>
      <stop offset="1" stop-color="#2563EB"/>
    </linearGradient>
    <linearGradient id="green" x1="0" y1="0" x2="1" y2="1">
      <stop stop-color="#34D399"/>
      <stop offset="1" stop-color="#14B8A6"/>
    </linearGradient>
    <linearGradient id="violet" x1="0" y1="0" x2="1" y2="1">
      <stop stop-color="#F472B6"/>
      <stop offset="1" stop-color="#8B5CF6"/>
    </linearGradient>
    <filter id="glow" x="0" y="0" width="1600" height="720" filterUnits="userSpaceOnUse" color-interpolation-filters="sRGB">
      <feGaussianBlur stdDeviation="54"/>
    </filter>
  </defs>

  <rect width="1600" height="720" rx="36" fill="url(#bg)"/>

  <g filter="url(#glow)" opacity="0.48">
    <circle cx="262" cy="132" r="110" fill="#2563EB"/>
    <circle cx="1318" cy="132" r="108" fill="#14B8A6"/>
    <circle cx="1150" cy="560" r="130" fill="#8B5CF6"/>
  </g>

  <rect x="68" y="68" width="1464" height="584" rx="34" fill="white" fill-opacity="0.04" stroke="white" stroke-opacity="0.10"/>

  <g opacity="0.16">
    <path d="M150 214H468" stroke="white" stroke-width="2"/>
    <path d="M150 500H468" stroke="white" stroke-width="2"/>
    <path d="M1132 214H1450" stroke="white" stroke-width="2"/>
    <path d="M1132 500H1450" stroke="white" stroke-width="2"/>
  </g>

  <g>
    <rect x="130" y="182" width="320" height="170" rx="26" fill="#091121" stroke="white" stroke-opacity="0.08"/>
    <rect x="164" y="220" width="92" height="92" rx="22" fill="url(#blue)"/>
    <circle cx="210" cy="266" r="26" fill="none" stroke="white" stroke-width="14" stroke-linecap="round"/>
    <circle cx="210" cy="266" r="10" fill="#2563EB"/>
    <text x="282" y="254" fill="white" fill-opacity="0.84" font-family="Arial, Helvetica, sans-serif" font-size="24" font-weight="700">inspect</text>
    <text x="282" y="292" fill="white" fill-opacity="0.56" font-family="Arial, Helvetica, sans-serif" font-size="18">entrypoints</text>
    <text x="282" y="320" fill="white" fill-opacity="0.56" font-family="Arial, Helvetica, sans-serif" font-size="18">schemas</text>
  </g>

  <g>
    <rect x="528" y="126" width="544" height="450" rx="30" fill="#080E1D" stroke="white" stroke-opacity="0.10"/>
    <circle cx="564" cy="162" r="8" fill="white" fill-opacity="0.62"/>
    <circle cx="590" cy="162" r="8" fill="white" fill-opacity="0.50"/>
    <circle cx="616" cy="162" r="8" fill="white" fill-opacity="0.38"/>
    <path d="M642 162H1012" stroke="white" stroke-opacity="0.10" stroke-width="2"/>

    <text x="596" y="288" fill="white" font-family="Arial, Helvetica, sans-serif" font-size="106" font-weight="800" letter-spacing="-3">dank-py</text>
    <text x="596" y="350" fill="white" fill-opacity="0.72" font-family="Arial, Helvetica, sans-serif" font-size="28" font-weight="600">package agents as microservices</text>

    <rect x="596" y="408" width="136" height="44" rx="22" fill="white" fill-opacity="0.08"/>
    <text x="623" y="437" fill="white" fill-opacity="0.94" font-family="Arial, Helvetica, sans-serif" font-size="20" font-weight="700">Docker</text>

    <rect x="746" y="408" width="124" height="44" rx="22" fill="white" fill-opacity="0.08"/>
    <text x="777" y="437" fill="white" fill-opacity="0.94" font-family="Arial, Helvetica, sans-serif" font-size="20" font-weight="700">traces</text>

    <rect x="884" y="408" width="128" height="44" rx="22" fill="white" fill-opacity="0.08"/>
    <text x="914" y="437" fill="white" fill-opacity="0.94" font-family="Arial, Helvetica, sans-serif" font-size="20" font-weight="700">bundles</text>

    <rect x="596" y="490" width="358" height="12" rx="6" fill="white" fill-opacity="0.08"/>
    <rect x="596" y="490" width="250" height="12" rx="6" fill="url(#green)"/>

    <rect x="596" y="526" width="358" height="12" rx="6" fill="white" fill-opacity="0.08"/>
    <rect x="596" y="526" width="300" height="12" rx="6" fill="url(#violet)"/>

    <rect x="596" y="562" width="358" height="12" rx="6" fill="white" fill-opacity="0.08"/>
    <rect x="596" y="562" width="224" height="12" rx="6" fill="url(#blue)"/>
  </g>

  <g>
    <rect x="1150" y="182" width="320" height="170" rx="26" fill="#091121" stroke="white" stroke-opacity="0.08"/>
    <rect x="1184" y="220" width="92" height="92" rx="22" fill="url(#green)"/>
    <path d="M1206 244H1254" stroke="white" stroke-width="10" stroke-linecap="round"/>
    <path d="M1206 266H1244" stroke="white" stroke-width="10" stroke-linecap="round"/>
    <path d="M1206 288H1248" stroke="white" stroke-width="10" stroke-linecap="round"/>
    <text x="1302" y="254" fill="white" fill-opacity="0.84" font-family="Arial, Helvetica, sans-serif" font-size="24" font-weight="700">run</text>
    <text x="1302" y="292" fill="white" fill-opacity="0.56" font-family="Arial, Helvetica, sans-serif" font-size="18">status / metrics</text>
    <text x="1302" y="320" fill="white" fill-opacity="0.56" font-family="Arial, Helvetica, sans-serif" font-size="18">logs / traces</text>
  </g>

  <g opacity="0.95">
    <path d="M450 267H528" stroke="url(#blue)" stroke-width="4" stroke-linecap="round"/>
    <circle cx="489" cy="267" r="10" fill="#38BDF8"/>
    <path d="M1072 267H1150" stroke="url(#green)" stroke-width="4" stroke-linecap="round"/>
    <circle cx="1111" cy="267" r="10" fill="#34D399"/>
  </g>
</svg>
